<?xml version="1.0" encoding="UTF-8"?>
<svg id="Capa_1" data-name="Capa 1" xmlns="http://www.w3.org/2000/svg" viewBox="0 0 742.52 800">
  <defs>
    <style>
      .cls-1 {
        fill: #fff;
      }
    </style>
  </defs>
  <path class="cls-1" d="m735.99,417.72q.16-.16.33-.33c.49-.65.98-1.14,1.31-1.8.16-.16.16-.33.33-.49.33-.65.82-1.31,1.14-1.96,0-.16.16-.33.16-.33.33-.65.65-1.31.98-2.12q0-.16.16-.33c.33-.65.49-1.47.82-2.29,0-.16,0-.33.16-.33.16-.82.49-1.47.49-2.29,0-.33,0-.49.16-.82.16-.65.16-1.31.33-1.96.16-.98.16-1.8.16-2.78s0-1.8-.16-2.78c0-.65-.16-1.31-.33-1.96,0-.33,0-.49-.16-.82-.16-.82-.33-1.47-.49-2.29,0-.16,0-.33-.16-.33-.16-.82-.49-1.47-.82-2.29q0-.16-.16-.33c-.33-.65-.65-1.47-.98-2.12,0-.16-.16-.33-.16-.33-.33-.65-.65-1.31-1.14-1.96-.16-.16-.16-.33-.33-.49-.49-.65-.82-1.31-1.31-1.8q-.16-.16-.33-.33c-.65-.65-1.14-1.47-1.96-2.12l-161.5-161.34c-10.94-10.94-28.74-10.94-39.68,0-10.94,10.94-10.94,28.74,0,39.68l113.66,113.66H194.65c-15.51,0-28.09,12.57-28.09,27.92s12.57,28.09,28.09,28.09h452.01l-112.84,112.84c-10.94,10.94-10.94,28.74,0,39.68,5.39,5.39,12.57,8.16,19.76,8.16s14.37-2.78,19.76-8.16l160.52-160.52c.82-.98,1.47-1.63,2.12-2.29Z"/>
  <path class="cls-1" d="m152.03,56.01h209.02c15.51,0,28.09-12.57,28.09-27.92S376.57,0,361.05,0h-209.02C68.26,0,0,68.26,0,152.03v495.94c0,83.77,68.26,152.03,152.03,152.03h205.59c15.51,0,28.09-12.57,28.09-27.92s-12.57-28.09-28.09-28.09h-205.59c-52.91,0-96.02-43.11-96.02-96.02V152.03c.16-53.07,43.11-96.02,96.02-96.02Z"/>
</svg>