<?xml version="1.0" encoding="UTF-8"?>
<svg id="Laag_1" data-name="Laag 1" xmlns="http://www.w3.org/2000/svg" viewBox="0 0 40 40">
  <defs>
    <style>
      .cls-1 {
        fill: #fff;
      }
    </style>
  </defs>
  <path class="cls-1" d="m15.4,40l-1-6.3c-.63-.23-1.3-.55-2-.95s-1.32-.82-1.85-1.25l-5.9,2.7L0,26l5.4-3.95c-.07-.3-.11-.64-.13-1.03s-.03-.73-.03-1.03,0-.64.03-1.03.06-.73.13-1.03L0,14,4.65,5.8l5.9,2.7c.53-.43,1.15-.85,1.85-1.25s1.37-.7,2-.9l1-6.35h9.2l1,6.3c.63.23,1.31.54,2.03.93s1.33.81,1.83,1.28l5.9-2.7,4.65,8.2-5.4,3.85c.07.33.11.69.13,1.08s.03.74.03,1.08,0,.68-.03,1.05-.06.72-.13,1.05l5.4,3.9-4.65,8.2-5.9-2.7c-.53.43-1.14.86-1.83,1.28s-1.36.73-2.03.93l-1,6.3h-9.2Zm4.6-13.5c1.8,0,3.33-.63,4.6-1.9s1.9-2.8,1.9-4.6-.63-3.33-1.9-4.6-2.8-1.9-4.6-1.9-3.33.63-4.6,1.9-1.9,2.8-1.9,4.6.63,3.33,1.9,4.6,2.8,1.9,4.6,1.9Zm0-3c-.97,0-1.79-.34-2.48-1.03s-1.03-1.51-1.03-2.48.34-1.79,1.03-2.48,1.51-1.03,2.48-1.03,1.79.34,2.48,1.03,1.03,1.51,1.03,2.48-.34,1.79-1.03,2.48-1.51,1.03-2.48,1.03Zm-2.2,13.5h4.4l.7-5.6c1.1-.27,2.14-.68,3.13-1.25s1.88-1.25,2.68-2.05l5.3,2.3,2-3.6-4.7-3.45c.13-.57.24-1.13.33-1.68s.13-1.11.13-1.68-.03-1.13-.1-1.68-.18-1.11-.35-1.68l4.7-3.45-2-3.6-5.3,2.3c-.77-.87-1.63-1.59-2.6-2.18s-2.03-.96-3.2-1.13l-.7-5.6h-4.4l-.7,5.6c-1.13.23-2.19.63-3.18,1.2s-1.86,1.27-2.63,2.1l-5.3-2.3-2,3.6,4.7,3.45c-.13.57-.24,1.13-.33,1.68s-.13,1.11-.13,1.68.04,1.13.13,1.68.19,1.11.33,1.68l-4.7,3.45,2,3.6,5.3-2.3c.8.8,1.69,1.48,2.68,2.05s2.03.98,3.13,1.25l.7,5.6Z"/>
</svg>