<?xml version="1.0" encoding="UTF-8"?>
<svg id="Laag_1" data-name="Laag 1" xmlns="http://www.w3.org/2000/svg" viewBox="0 0 40 40">
  <defs>
    <style>
      .cls-1 {
        fill: #fff;
      }
    </style>
  </defs>
  <path class="cls-1" d="m27.35,29.65l2.25-2.25-7.95-8v-10.05h-3v11.25l8.7,9.05Zm-7.35,10.35c-2.73,0-5.32-.53-7.75-1.58s-4.56-2.48-6.38-4.3-3.25-3.94-4.3-6.38-1.58-5.02-1.58-7.75.53-5.32,1.58-7.75,2.48-4.56,4.3-6.38,3.94-3.25,6.38-4.3,5.02-1.58,7.75-1.58,5.32.53,7.75,1.58,4.56,2.48,6.38,4.3,3.25,3.94,4.3,6.38,1.58,5.02,1.58,7.75-.53,5.32-1.58,7.75-2.48,4.56-4.3,6.38-3.94,3.25-6.38,4.3-5.02,1.58-7.75,1.58Zm0-3c4.67,0,8.67-1.67,12-5s5-7.33,5-12-1.67-8.67-5-12-7.33-5-12-5-8.67,1.67-12,5c-3.33,3.33-5,7.33-5,12s1.67,8.67,5,12c3.33,3.33,7.33,5,12,5Z"/>
</svg>